<?xml version="1.0" encoding="UTF-8"?>
<svg version="1.1" xmlns="http://www.w3.org/2000/svg" width="87" height="86" viewBox="0 0 87 86" preserveAspectRatio="xMidYMid meet">
	<!-- Rounded clipping mask (20px radius) -->
	<defs>
		<clipPath id="rounded-clip">
			<rect x="0" y="0" width="87" height="86" rx="20" ry="20" />
		</clipPath>
	</defs>
	<g clip-path="url(#rounded-clip)">
	<path d="M0 0 C28.71 0 57.42 0 87 0 C87 28.38 87 56.76 87 86 C58.29 86 29.58 86 0 86 C0 57.62 0 29.24 0 0 Z " fill="#FCFDFB" transform="translate(0,0)"/>
<path d="M0 0 C-0.28983327 7.82549827 -3.20594791 13.91043128 -8.5546875 19.67578125 C-12.56433778 23.19720986 -16.13594392 24.89832421 -21.4375 25.1875 C-26.3338495 26.30421129 -28.22773055 28.97183667 -31 33 C-31.495 33.99 -31.495 33.99 -32 35 C-27.72658086 34.52517565 -25.89680572 31.96922587 -23 29 C-18.31950979 26.07969414 -13.33740187 26.49342403 -8 27 C-5.14450153 27.77308488 -2.70739994 28.77400758 0 30 C-1.88764841 35.19951058 -6.07771463 36.54414765 -10.81640625 38.796875 C-14.98498182 40.37223853 -18.62080437 40.91821844 -23 40 C-23.99773438 39.47792969 -23.99773438 39.47792969 -25.015625 38.9453125 C-28.10233826 37.47487035 -30.73632084 38.37236939 -34 39 C-35.98 43.95 -35.98 43.95 -38 49 C-34.93274069 48.07268905 -32.40112725 47.29798024 -29.8125 45.375 C-24.2805354 42.67048397 -18.53477249 43.20292094 -12.7578125 45.01953125 C-8.08506492 46.91033742 -3.93993605 48.82383406 0 52 C-0.58984375 53.828125 -0.58984375 53.828125 -2 56 C-8.92430192 59.49433563 -17.185799 62.47923146 -25 61 C-29.17307095 59.45441817 -31.7462308 57.88149141 -34 54 C-34 53.34 -34 52.68 -34 52 C-40.17167193 53.00761991 -42.49194692 55.28079199 -46.359375 60.09765625 C-48.2976271 62.34510571 -50.39146536 63.61901107 -53 65 C-53.495 65.99 -53.495 65.99 -54 67 C-55.9375 66.3125 -55.9375 66.3125 -58 65 C-58.75 62.375 -58.75 62.375 -59 60 C-57.948125 59.731875 -56.89625 59.46375 -55.8125 59.1875 C-50.84566389 57.64045269 -47.90707767 56.3606165 -45 52 C-45.31506627 48.85778033 -45.31506627 48.85778033 -46 46 C-47.794375 45.7215625 -47.794375 45.7215625 -49.625 45.4375 C-54.75925975 44.11985812 -57.31975198 41.48941544 -60 37 C-63.63803895 29.15547851 -63.67149958 20.4957005 -64 12 C-57.27695363 12.71243001 -53.0170936 14.48752703 -48 19 C-43.73064794 25.09406143 -42.86964078 30.92120465 -42.9375 38.25 C-42.94652344 39.51328125 -42.95554687 40.7765625 -42.96484375 42.078125 C-42.97644531 43.04234375 -42.98804687 44.0065625 -43 45 C-42.34 45 -41.68 45 -41 45 C-40.690625 44.030625 -40.38125 43.06125 -40.0625 42.0625 C-39 39 -39 39 -38 38 C-37.60006303 33.84065548 -37.49161021 31.72158551 -39.9375 28.25 C-40.618125 27.5075 -41.29875 26.765 -42 26 C-44.42829806 18.71510583 -43.23621228 12.36295382 -39.875 5.6171875 C-39.58625 5.08351563 -39.2975 4.54984375 -39 4 C-35.2109375 4.6953125 -35.2109375 4.6953125 -33.3125 7.4375 C-30.28492758 13.34847473 -29.81212619 19.8493479 -31.671875 26.34765625 C-32.5 28.25 -32.5 28.25 -34 31 C-28.85617979 26.26056817 -27.43381684 22.43687546 -26.4765625 15.5859375 C-25.57669116 10.70302909 -23.11909462 7.95532467 -19.4375 4.8125 C-13.35490715 1.60531468 -6.90291083 -0.24965319 0 0 Z " fill="#61992A" transform="translate(75,9)"/>
<path d="M0 0 C-0.28920782 7.80861119 -3.17735938 14.06043155 -8.66015625 19.7109375 C-12.84282781 23.26672217 -15.22598296 24.12527927 -20.625 24.0625 C-21.62789062 24.05347656 -22.63078125 24.04445313 -23.6640625 24.03515625 C-24.43492188 24.02355469 -25.20578125 24.01195313 -26 24 C-26.62054002 14.31268081 -26.62054002 14.31268081 -24.375 9.5625 C-17.99439643 2.67816456 -9.3411093 -0.33783397 0 0 Z " fill="#5E9826" transform="translate(75,9)"/>
<path d="M0 0 C6.83354592 -1.17343718 12.79510665 0.19023698 19 3 C17.11294467 8.19787697 12.92404525 9.53982134 8.19140625 11.80078125 C3.76713518 13.46326744 0.67424482 13.52773732 -4 13 C-4.66 12.67 -5.32 12.34 -6 12 C-6.625 8.9375 -6.625 8.9375 -7 6 C-6.34 5.67 -5.68 5.34 -5 5 C-5 5.66 -5 6.32 -5 7 C-4.46890625 6.7834375 -3.9378125 6.566875 -3.390625 6.34375 C-2.68421875 6.0653125 -1.9778125 5.786875 -1.25 5.5 C-0.55390625 5.2215625 0.1421875 4.943125 0.859375 4.65625 C3 4 3 4 7 4 C7 3.34 7 2.68 7 2 C2.545 2.495 2.545 2.495 -2 3 C-1.34 2.01 -0.68 1.02 0 0 Z " fill="#659B2F" transform="translate(56,36)"/>
<path d="M0 0 C0.33 0 0.66 0 1 0 C1 2.31 1 4.62 1 7 C3.64 7 6.28 7 9 7 C9 7.33 9 7.66 9 8 C7.96875 8.020625 6.9375 8.04125 5.875 8.0625 C0.77343605 9.29674934 -1.10273933 11.79022191 -4 16 C-4.33 16.66 -4.66 17.32 -5 18 C-1.73639975 17.63737775 -0.87056904 16.86733326 1.5 14.4375 C5.29978646 10.7327082 9.88081919 12 15 12 C15 12.66 15 13.32 15 14 C14.14535156 14.20496094 13.29070313 14.40992188 12.41015625 14.62109375 C11.30542969 14.89050781 10.20070313 15.15992188 9.0625 15.4375 C7.96035156 15.70433594 6.85820313 15.97117187 5.72265625 16.24609375 C3.10578746 16.72995725 3.10578746 16.72995725 2 18 C2 18.99 2 19.98 2 21 C-0.97 21.33 -3.94 21.66 -7 22 C-8.32 25.3 -9.64 28.6 -11 32 C-11.33 31.01 -11.66 30.02 -12 29 C-13.65 29 -15.3 29 -17 29 C-17.33 29.66 -17.66 30.32 -18 31 C-18.33 30.01 -18.66 29.02 -19 28 C-18.34 28 -17.68 28 -17 28 C-17 23.38 -17 18.76 -17 14 C-16.67 14 -16.34 14 -16 14 C-16 18.62 -16 23.24 -16 28 C-15.34 28 -14.68 28 -14 28 C-13.5359375 26.5459375 -13.5359375 26.5459375 -13.0625 25.0625 C-12 22 -12 22 -11 21 C-10.92851801 19.64756083 -10.91600546 18.29165633 -10.9375 16.9375 C-10.958125 15.638125 -10.97875 14.33875 -11 13 C-9.68 13.33 -8.36 13.66 -7 14 C-2.50664023 9.47915791 -0.26327654 6.45027515 0 0 Z " fill="#75A046" transform="translate(48,26)"/>
<path d="M0 0 C0.33 0 0.66 0 1 0 C1.09796875 0.88042969 1.1959375 1.76085937 1.296875 2.66796875 C1.44640625 3.82941406 1.5959375 4.99085937 1.75 6.1875 C1.88921875 7.33605469 2.0284375 8.48460937 2.171875 9.66796875 C3.09478424 13.38137245 4.54600534 15.12882625 7 18 C7.88631199 23.98260593 6.17112781 27.14421055 3 32 C2.34 32 1.68 32 1 32 C0.95101563 31.0821875 0.90203125 30.164375 0.8515625 29.21875 C0.4465744 22.57135914 -0.08416358 16.38612141 -2 10 C-1.34 10 -0.68 10 0 10 C0 6.7 0 3.4 0 0 Z " fill="#EEF3E8" transform="translate(31,22)"/>
<path d="M0 0 C0.12375 0.639375 0.2475 1.27875 0.375 1.9375 C0.58125 2.618125 0.7875 3.29875 1 4 C1.66 4.33 2.32 4.66 3 5 C-0.66573111 9.44747204 -3.83456626 13.26535861 -9 16 C-9.33 16.66 -9.66 17.32 -10 18 C-11.9375 17.3125 -11.9375 17.3125 -14 16 C-14.75 13.375 -14.75 13.375 -15 11 C-13.948125 10.731875 -12.89625 10.46375 -11.8125 10.1875 C-6.66509452 8.58420977 -3.90145818 7.58532301 -1.1875 2.8125 C-0.5996875 1.4203125 -0.5996875 1.4203125 0 0 Z " fill="#709F43" transform="translate(31,58)"/>
<path d="M0 0 C0.66 0 1.32 0 2 0 C2.39832031 1.02480469 2.79664063 2.04960937 3.20703125 3.10546875 C3.74195417 4.46623758 4.27712349 5.82690957 4.8125 7.1875 C5.07353516 7.86103516 5.33457031 8.53457031 5.60351562 9.22851562 C6.80310375 12.26451027 7.99967899 14.99947088 9.69921875 17.80078125 C11 20 11 20 11 23 C8.17029715 22.69681755 7.03506155 22.0329366 4.9375 20.0625 C1.02081674 13.87161356 -0.47394772 7.26719834 0 0 Z " fill="#84B92F" transform="translate(14,28)"/>
<path d="M0 0 C0.33 0 0.66 0 1 0 C1 4.62 1 9.24 1 14 C1.66 14 2.32 14 3 14 C3.268125 13.030625 3.53625 12.06125 3.8125 11.0625 C4.204375 10.051875 4.59625 9.04125 5 8 C5.99 7.67 6.98 7.34 8 7 C8 5.35 8 3.7 8 2 C8.99 2 9.98 2 11 2 C11 2.99 11 3.98 11 5 C11.66 5 12.32 5 13 5 C13 5.66 13 6.32 13 7 C12.01 7.33 11.02 7.66 10 8 C8.75501391 10.32269959 8.75501391 10.32269959 7.8125 13.0625 C7.46832031 13.98160156 7.12414063 14.90070312 6.76953125 15.84765625 C6.51558594 16.55792969 6.26164062 17.26820312 6 18 C5.67 17.01 5.34 16.02 5 15 C3.35 15 1.7 15 0 15 C-0.33 15.66 -0.66 16.32 -1 17 C-1.33 16.01 -1.66 15.02 -2 14 C-1.34 14 -0.68 14 0 14 C0 9.38 0 4.76 0 0 Z " fill="#77A44C" transform="translate(31,40)"/>
<path d="M0 0 C0.99 0.33 1.98 0.66 3 1 C5.14255793 0.61067144 5.14255793 0.61067144 7 0 C6.1875 1.9375 6.1875 1.9375 5 4 C4.01 4.33 3.02 4.66 2 5 C0.89363605 7.39068734 0.89363605 7.39068734 0 10 C-0.99 11.485 -0.99 11.485 -2 13 C-2.66 13 -3.32 13 -4 13 C-4.75 10.375 -4.75 10.375 -5 7 C-3.51571399 4.37776138 -2.1352735 2.1352735 0 0 Z " fill="#80B631" transform="translate(54,15)"/>
<path d="M0 0 C0.99386719 0.00902344 1.98773438 0.01804688 3.01171875 0.02734375 C4.15060547 0.04474609 4.15060547 0.04474609 5.3125 0.0625 C4.9825 1.7125 4.6525 3.3625 4.3125 5.0625 C-0.12159099 6.17102275 -4.14218578 6.28243456 -8.6875 6.0625 C-9.6775 5.4025 -10.6675 4.7425 -11.6875 4.0625 C-8.13167064 0.16802023 -5.13031675 -0.06035667 0 0 Z " fill="#82B82E" transform="translate(53.6875,52.9375)"/>
<path d="M0 0 C1.18239258 0.10538086 1.18239258 0.10538086 2.38867188 0.21289062 C4.32394004 0.38882409 6.25618873 0.59743667 8.1875 0.8125 C8.1875 1.1425 8.1875 1.4725 8.1875 1.8125 C7.11822266 1.85117187 7.11822266 1.85117187 6.02734375 1.890625 C-0.36986241 2.26946359 -4.59005653 3.03456217 -9.8125 6.8125 C-10.8025 8.2975 -10.8025 8.2975 -11.8125 9.8125 C-13.1325 9.8125 -14.4525 9.8125 -15.8125 9.8125 C-13.05090167 1.02559621 -8.50606955 -0.99106762 0 0 Z " fill="#EDF2E7" transform="translate(58.8125,34.1875)"/>
<path d="M0 0 C2.42457025 3.63685537 2.29768407 6.36232779 2.25 10.5625 C2.25773437 11.24763672 2.26546875 11.93277344 2.2734375 12.63867188 C2.2533867 17.7466133 2.2533867 17.7466133 0 20 C-2.56708663 15.18671257 -2.45283883 10.31214782 -2 5 C-1 1.875 -1 1.875 0 0 Z " fill="#84B638" transform="translate(34,17)"/>
<path d="M0 0 C-0.33 2.64 -0.66 5.28 -1 8 C-1.33 8 -1.66 8 -2 8 C-2 6.02 -2 4.04 -2 2 C-2.65226562 2.13277344 -3.30453125 2.26554688 -3.9765625 2.40234375 C-8.6408287 3.34482822 -13.29868454 4.25768703 -18 5 C-15.59881473 2.59881473 -13.94503958 2.24779139 -10.6875 1.375 C-9.74261719 1.11460938 -8.79773438 0.85421875 -7.82421875 0.5859375 C-5.12148098 0.02520352 -2.74968152 -0.1101876 0 0 Z " fill="#7AA251" transform="translate(75,9)"/>
<path d="M0 0 C0.33 0.66 0.66 1.32 1 2 C1.66 2 2.32 2 3 2 C3.6509259 3.24735567 4.29551669 4.49801832 4.9375 5.75 C5.29714844 6.44609375 5.65679688 7.1421875 6.02734375 7.859375 C6.95558182 9.90224433 7.53166578 11.81115376 8 14 C3.4901137 10.95277953 1.76990044 8.123396 0 3 C0 2.01 0 1.02 0 0 Z " fill="#719E39" transform="translate(13,38)"/>
<path d="M0 0 C0.33 0 0.66 0 1 0 C1 2.31 1 4.62 1 7 C3.64 7 6.28 7 9 7 C9 7.33 9 7.66 9 8 C7.9275 8.103125 6.855 8.20625 5.75 8.3125 C2.14179128 8.97400493 0.63604977 9.57483421 -2 12 C-2.66 11.34 -3.32 10.68 -4 10 C-3.525625 9.649375 -3.05125 9.29875 -2.5625 8.9375 C-0.32126175 6.15836457 -0.32882342 3.4855283 0 0 Z " fill="#80A559" transform="translate(48,26)"/>
<path d="M0 0 C0.33 0 0.66 0 1 0 C1.06058594 0.84304687 1.12117188 1.68609375 1.18359375 2.5546875 C1.26738281 3.65039062 1.35117187 4.74609375 1.4375 5.875 C1.51871094 6.96554688 1.59992187 8.05609375 1.68359375 9.1796875 C1.83001703 11.94728971 1.83001703 11.94728971 3 14 C2.34 14.66 1.68 15.32 1 16 C-1.54677703 11.22479306 -1.42040613 6.27951886 -1 1 C-0.67 0.67 -0.34 0.34 0 0 Z " fill="#78A63F" transform="translate(33,21)"/>
<path d="M0 0 C0.99386719 0.00902344 1.98773438 0.01804688 3.01171875 0.02734375 C4.15060547 0.04474609 4.15060547 0.04474609 5.3125 0.0625 C5.3125 0.3925 5.3125 0.7225 5.3125 1.0625 C4.22582031 1.24425781 4.22582031 1.24425781 3.1171875 1.4296875 C-1.97247573 2.31189579 -6.83633346 3.22692347 -11.6875 5.0625 C-8.38848002 0.19251812 -5.70150986 -0.06707659 0 0 Z " fill="#76A146" transform="translate(53.6875,52.9375)"/>
<path d="M0 0 C2.97 0.495 2.97 0.495 6 1 C5.67 2.98 5.34 4.96 5 7 C3.0625 6.3125 3.0625 6.3125 1 5 C0.25 2.375 0.25 2.375 0 0 Z " fill="#77A14C" transform="translate(16,69)"/>
<path d="M0 0 C2.31 0.33 4.62 0.66 7 1 C7 1.33 7 1.66 7 2 C5.35 2 3.7 2 2 2 C2 6.29 2 10.58 2 15 C1.67 15 1.34 15 1 15 C0.67 10.05 0.34 5.1 0 0 Z " fill="#82A65C" transform="translate(11,21)"/>
<path d="M0 0 C1.65 0 3.3 0 5 0 C4.34 2.31 3.68 4.62 3 7 C2.34 7 1.68 7 1 7 C0.67 4.69 0.34 2.38 0 0 Z " fill="#5F9627" transform="translate(31,55)"/>
<path d="M0 0 C1.6396875 0.0928125 1.6396875 0.0928125 3.3125 0.1875 C3.3125 0.8475 3.3125 1.5075 3.3125 2.1875 C0.0125 2.5175 -3.2875 2.8475 -6.6875 3.1875 C-3.6875 0.1875 -3.6875 0.1875 0 0 Z " fill="#82BA32" transform="translate(59.6875,37.8125)"/>
<path d="M0 0 C0.66 0.33 1.32 0.66 2 1 C2 1.99 2 2.98 2 4 C0.02 4.99 -1.96 5.98 -4 7 C-2.92598892 4.08482708 -2.22189824 2.22189824 0 0 Z " fill="#85AC4B" transform="translate(54,15)"/>
<path d="M0 0 C0.66 0.33 1.32 0.66 2 1 C2 1.99 2 2.98 2 4 C0.02 4.99 0.02 4.99 -2 6 C-2.99 5.34 -3.98 4.68 -5 4 C-3.35 2.68 -1.7 1.36 0 0 Z " fill="#86AE4E" transform="translate(53,37)"/>
<path d="M0 0 C0.9075 0.103125 1.815 0.20625 2.75 0.3125 C2.42 0.9725 2.09 1.6325 1.75 2.3125 C1.13125 2.456875 0.5125 2.60125 -0.125 2.75 C-2.61710392 3.40967457 -3.5829446 4.39538629 -5.25 6.3125 C-5.91 5.9825 -6.57 5.6525 -7.25 5.3125 C-4.05 0.38942308 -4.05 0.38942308 0 0 Z " fill="#E2ECD9" transform="translate(38.25,60.6875)"/>
<path d="M0 0 C0.99 0 1.98 0 3 0 C3 0.99 3 1.98 3 3 C3.66 3 4.32 3 5 3 C5 3.66 5 4.32 5 5 C3.35 5 1.7 5 0 5 C0 3.35 0 1.7 0 0 Z " fill="#63992D" transform="translate(39,42)"/>
<path d="M0 0 C1.875 0.25 1.875 0.25 4 1 C5.25 3.0625 5.25 3.0625 6 5 C5.401875 4.649375 4.80375 4.29875 4.1875 3.9375 C1.89186786 2.66695302 1.89186786 2.66695302 -1 4 C-0.67 2.68 -0.34 1.36 0 0 Z " fill="#7BA450" transform="translate(36,13)"/>
	</g>
</svg>
